<mxfile host="app.diagrams.net" modified="2023-11-04T08:59:11.345Z" agent="Mozilla/5.0 (Windows NT 10.0; Win64; x64) AppleWebKit/537.36 (KHTML, like Gecko) Chrome/118.0.0.0 Safari/537.36" etag="G395AEv9VGAbOYUoXthi" version="22.0.8" type="device">
  <diagram name="Page-1" id="s6-fRaKwEOiIZPHpe_9a">
    <mxGraphModel dx="1917" dy="634" grid="1" gridSize="10" guides="1" tooltips="1" connect="1" arrows="1" fold="1" page="1" pageScale="1" pageWidth="827" pageHeight="1169" math="0" shadow="0">
      <root>
        <mxCell id="0" />
        <mxCell id="1" parent="0" />
        <mxCell id="_uDYwJI_6yczgbjU_ge_-8" style="edgeStyle=orthogonalEdgeStyle;rounded=0;sketch=1;hachureGap=4;jiggle=2;curveFitting=1;orthogonalLoop=1;jettySize=auto;html=1;fontFamily=Architects Daughter;fontSource=https%3A%2F%2Ffonts.googleapis.com%2Fcss%3Ffamily%3DArchitects%2BDaughter;fontSize=16;" edge="1" parent="1" source="_uDYwJI_6yczgbjU_ge_-6">
          <mxGeometry relative="1" as="geometry">
            <mxPoint x="270" y="175" as="targetPoint" />
          </mxGeometry>
        </mxCell>
        <mxCell id="_uDYwJI_6yczgbjU_ge_-6" value="" style="verticalLabelPosition=bottom;html=1;verticalAlign=top;align=center;strokeColor=none;fillColor=#00BEF2;shape=mxgraph.azure.git_repository;" vertex="1" parent="1">
          <mxGeometry x="90" y="150" width="50" height="50" as="geometry" />
        </mxCell>
        <mxCell id="_uDYwJI_6yczgbjU_ge_-10" style="edgeStyle=orthogonalEdgeStyle;rounded=0;sketch=1;hachureGap=4;jiggle=2;curveFitting=1;orthogonalLoop=1;jettySize=auto;html=1;fontFamily=Architects Daughter;fontSource=https%3A%2F%2Ffonts.googleapis.com%2Fcss%3Ffamily%3DArchitects%2BDaughter;fontSize=16;" edge="1" parent="1" source="_uDYwJI_6yczgbjU_ge_-9">
          <mxGeometry relative="1" as="geometry">
            <mxPoint x="330" y="100" as="targetPoint" />
          </mxGeometry>
        </mxCell>
        <mxCell id="_uDYwJI_6yczgbjU_ge_-17" value="" style="edgeStyle=orthogonalEdgeStyle;rounded=0;sketch=1;hachureGap=4;jiggle=2;curveFitting=1;orthogonalLoop=1;jettySize=auto;html=1;fontFamily=Architects Daughter;fontSource=https%3A%2F%2Ffonts.googleapis.com%2Fcss%3Ffamily%3DArchitects%2BDaughter;fontSize=16;" edge="1" parent="1" source="_uDYwJI_6yczgbjU_ge_-9">
          <mxGeometry relative="1" as="geometry">
            <mxPoint x="470" y="180" as="targetPoint" />
          </mxGeometry>
        </mxCell>
        <mxCell id="_uDYwJI_6yczgbjU_ge_-19" value="" style="edgeStyle=orthogonalEdgeStyle;rounded=0;sketch=1;hachureGap=4;jiggle=2;curveFitting=1;orthogonalLoop=1;jettySize=auto;html=1;fontFamily=Architects Daughter;fontSource=https%3A%2F%2Ffonts.googleapis.com%2Fcss%3Ffamily%3DArchitects%2BDaughter;fontSize=16;" edge="1" parent="1" source="_uDYwJI_6yczgbjU_ge_-9" target="_uDYwJI_6yczgbjU_ge_-18">
          <mxGeometry relative="1" as="geometry" />
        </mxCell>
        <mxCell id="_uDYwJI_6yczgbjU_ge_-9" value="Jenkins" style="rounded=0;whiteSpace=wrap;html=1;sketch=1;hachureGap=4;jiggle=2;curveFitting=1;fontFamily=Architects Daughter;fontSource=https%3A%2F%2Ffonts.googleapis.com%2Fcss%3Ffamily%3DArchitects%2BDaughter;fontSize=20;" vertex="1" parent="1">
          <mxGeometry x="270" y="150" width="120" height="60" as="geometry" />
        </mxCell>
        <mxCell id="_uDYwJI_6yczgbjU_ge_-11" value="sast/dast" style="whiteSpace=wrap;html=1;sketch=1;hachureGap=4;jiggle=2;curveFitting=1;fontFamily=Architects Daughter;fontSource=https%3A%2F%2Ffonts.googleapis.com%2Fcss%3Ffamily%3DArchitects%2BDaughter;fontSize=20;" vertex="1" parent="1">
          <mxGeometry x="270" y="40" width="120" height="60" as="geometry" />
        </mxCell>
        <mxCell id="_uDYwJI_6yczgbjU_ge_-20" style="edgeStyle=orthogonalEdgeStyle;rounded=0;sketch=1;hachureGap=4;jiggle=2;curveFitting=1;orthogonalLoop=1;jettySize=auto;html=1;fontFamily=Architects Daughter;fontSource=https%3A%2F%2Ffonts.googleapis.com%2Fcss%3Ffamily%3DArchitects%2BDaughter;fontSize=16;" edge="1" parent="1">
          <mxGeometry relative="1" as="geometry">
            <mxPoint x="640" y="180" as="targetPoint" />
            <mxPoint x="560" y="180" as="sourcePoint" />
          </mxGeometry>
        </mxCell>
        <mxCell id="_uDYwJI_6yczgbjU_ge_-31" style="edgeStyle=orthogonalEdgeStyle;rounded=0;sketch=1;hachureGap=4;jiggle=2;curveFitting=1;orthogonalLoop=1;jettySize=auto;html=1;exitX=1.042;exitY=0.47;exitDx=0;exitDy=0;fontFamily=Architects Daughter;fontSource=https%3A%2F%2Ffonts.googleapis.com%2Fcss%3Ffamily%3DArchitects%2BDaughter;fontSize=16;exitPerimeter=0;" edge="1" parent="1" source="_uDYwJI_6yczgbjU_ge_-45">
          <mxGeometry relative="1" as="geometry">
            <mxPoint x="610" y="260" as="targetPoint" />
            <mxPoint x="590" y="180" as="sourcePoint" />
          </mxGeometry>
        </mxCell>
        <mxCell id="_uDYwJI_6yczgbjU_ge_-18" value="code build" style="rounded=0;whiteSpace=wrap;html=1;sketch=1;hachureGap=4;jiggle=2;curveFitting=1;fontFamily=Architects Daughter;fontSource=https%3A%2F%2Ffonts.googleapis.com%2Fcss%3Ffamily%3DArchitects%2BDaughter;fontSize=20;" vertex="1" parent="1">
          <mxGeometry x="270" y="260" width="120" height="60" as="geometry" />
        </mxCell>
        <mxCell id="_uDYwJI_6yczgbjU_ge_-27" style="edgeStyle=orthogonalEdgeStyle;rounded=0;sketch=1;hachureGap=4;jiggle=2;curveFitting=1;orthogonalLoop=1;jettySize=auto;html=1;fontFamily=Architects Daughter;fontSource=https%3A%2F%2Ffonts.googleapis.com%2Fcss%3Ffamily%3DArchitects%2BDaughter;fontSize=16;" edge="1" parent="1" source="_uDYwJI_6yczgbjU_ge_-24">
          <mxGeometry relative="1" as="geometry">
            <mxPoint x="430" y="470" as="targetPoint" />
          </mxGeometry>
        </mxCell>
        <mxCell id="_uDYwJI_6yczgbjU_ge_-41" style="edgeStyle=orthogonalEdgeStyle;rounded=0;sketch=1;hachureGap=4;jiggle=2;curveFitting=1;orthogonalLoop=1;jettySize=auto;html=1;exitX=0.5;exitY=1;exitDx=0;exitDy=0;fontFamily=Architects Daughter;fontSource=https%3A%2F%2Ffonts.googleapis.com%2Fcss%3Ffamily%3DArchitects%2BDaughter;fontSize=16;" edge="1" parent="1" source="_uDYwJI_6yczgbjU_ge_-24">
          <mxGeometry relative="1" as="geometry">
            <mxPoint x="670" y="540" as="targetPoint" />
          </mxGeometry>
        </mxCell>
        <mxCell id="_uDYwJI_6yczgbjU_ge_-24" value="argo cd" style="whiteSpace=wrap;html=1;sketch=1;hachureGap=4;jiggle=2;curveFitting=1;fontFamily=Architects Daughter;fontSource=https%3A%2F%2Ffonts.googleapis.com%2Fcss%3Ffamily%3DArchitects%2BDaughter;fontSize=20;" vertex="1" parent="1">
          <mxGeometry x="610" y="440" width="120" height="60" as="geometry" />
        </mxCell>
        <mxCell id="_uDYwJI_6yczgbjU_ge_-25" value="acr" style="text;html=1;align=center;verticalAlign=middle;resizable=0;points=[];autosize=1;strokeColor=none;fillColor=none;fontSize=20;fontFamily=Architects Daughter;" vertex="1" parent="1">
          <mxGeometry x="649.5" y="100" width="60" height="40" as="geometry" />
        </mxCell>
        <mxCell id="_uDYwJI_6yczgbjU_ge_-32" value="" style="verticalLabelPosition=bottom;html=1;verticalAlign=top;align=center;strokeColor=none;fillColor=#00BEF2;shape=mxgraph.azure.git_repository;" vertex="1" parent="1">
          <mxGeometry x="590" y="265" width="50" height="50" as="geometry" />
        </mxCell>
        <mxCell id="_uDYwJI_6yczgbjU_ge_-33" style="edgeStyle=orthogonalEdgeStyle;rounded=0;sketch=1;hachureGap=4;jiggle=2;curveFitting=1;orthogonalLoop=1;jettySize=auto;html=1;entryX=1;entryY=0.5;entryDx=0;entryDy=0;entryPerimeter=0;fontFamily=Architects Daughter;fontSource=https%3A%2F%2Ffonts.googleapis.com%2Fcss%3Ffamily%3DArchitects%2BDaughter;fontSize=16;" edge="1" parent="1" source="_uDYwJI_6yczgbjU_ge_-24" target="_uDYwJI_6yczgbjU_ge_-32">
          <mxGeometry relative="1" as="geometry" />
        </mxCell>
        <mxCell id="_uDYwJI_6yczgbjU_ge_-34" value="" style="image;aspect=fixed;html=1;points=[];align=center;fontSize=12;image=img/lib/azure2/containers/Container_Registries.svg;" vertex="1" parent="1">
          <mxGeometry x="645.5" y="150" width="68" height="61" as="geometry" />
        </mxCell>
        <mxCell id="_uDYwJI_6yczgbjU_ge_-47" style="edgeStyle=orthogonalEdgeStyle;rounded=0;sketch=1;hachureGap=4;jiggle=2;curveFitting=1;orthogonalLoop=1;jettySize=auto;html=1;fontFamily=Architects Daughter;fontSource=https%3A%2F%2Ffonts.googleapis.com%2Fcss%3Ffamily%3DArchitects%2BDaughter;fontSize=16;" edge="1" parent="1" source="_uDYwJI_6yczgbjU_ge_-35">
          <mxGeometry relative="1" as="geometry">
            <mxPoint x="260" y="477.0600000000002" as="targetPoint" />
          </mxGeometry>
        </mxCell>
        <mxCell id="_uDYwJI_6yczgbjU_ge_-35" value="" style="image;aspect=fixed;html=1;points=[];align=center;fontSize=12;image=img/lib/azure2/containers/Kubernetes_Services.svg;" vertex="1" parent="1">
          <mxGeometry x="330" y="440" width="84" height="74.12" as="geometry" />
        </mxCell>
        <mxCell id="_uDYwJI_6yczgbjU_ge_-37" value="aks" style="text;html=1;align=center;verticalAlign=middle;resizable=0;points=[];autosize=1;strokeColor=none;fillColor=none;fontSize=20;fontFamily=Architects Daughter;" vertex="1" parent="1">
          <mxGeometry x="340" y="533" width="60" height="40" as="geometry" />
        </mxCell>
        <mxCell id="_uDYwJI_6yczgbjU_ge_-38" value="" style="shape=image;verticalLabelPosition=bottom;verticalAlign=top;imageAspect=0;aspect=fixed;image=data:image/png,iVBORw0KGgoAAAANSUhEUgAAAQMAAADCCAMAAAB6zFdcAAAAzFBMVEX///9fQ+lAQLJeQelTMuhbPemMe+5jRuoqKq00NK/p6fXUz/ioqNhdQOlQLehRL+hXN+g5ObD5+P5VNehYOuiIdu7t6vxNKOfw7v2nmvLCuvba1fnSzPgnJ6y9tPVsVOu1td4vL67k4Pt2YOxzc8ODcO3R0eqekPHLxPeyp/NmS+p9aeyXiPBoTupsbMG5r/SsoPLHwPZwWOtWVrkfH6qbm9O5ud9QULigkvGSks+Tg+94YuxFRbT29P5HH+fn4/uGhsrHx+VjY74VFapDYfotAAAFyklEQVR4nO2da3vaOBBGJQwEyILxhZK00EIbQsml7bbbTdJNmr38//+0kmOwsSVbTuwKaeb90g9tkvF5nh5mNCIQgsFgMBgMBoPBYDAYDAbTVE583RXoz2z8UXcJ2nPsuh/e6y5Cc47bdDj68aC7DK1hDCgN219016EzEQPqjDu/665EX54YMArtD29016IrWwaUa+FEdzV6kjBgWnBhaiHNgNLgCKIW9hlQxwWohQwDpoVpF5oWcgwo7UDTgoABpWP6WnddvzJCBqxb+ApIC2IGvFuAowUZA6aF9qnu4n5R5Az4EAFDCwUMwGihkAEQLZQwYFoYWa+FUgasW7BdCwoMrNeCCgOuhckr3ZU2FzUGfIg4tXYTocrAZi2oM6DOz5nuaptJBQa0fay72maCDJ7DYN3k6+Titwa/uSzVGXSnk6ba5/NvfxjCoMOm6iZeJwdnPa9vCgM2VQ/rf5383vNaLXMYNNA+/+n1Wy2zGNQ8VZ9/W7Za5jGocaoenM29lpkMWPsc1qAFPxKBsQyYFt69VAuxCMxl8OKpeicCkxlEWnhut8A7gpYNDPhU/fZZP/t7loDBDLgWqo9Tiz0RGM+Aa2FVTQvnN8s8AbMZ8NXcrboWmAhEBExnwLsFVS3c5UVgCQNVLSz6AhHYwkCpW8h2BNYx4N1CoRZSo4G9DCgNA6kW/LtiAtYwYFq4FmtB2BEcAgO3dgaSbkHSERwAg0caOLUz4FpY72th8EnSERwAA0K+tMP6GTAthJ+Tn+HLO4KDYEAefkzVHqsSA66F7W6uqCM4DAaEvP/LVfkPUY1BpAX+Bf69ggi0MyDko4oWqjKgDuVfMJgrI9DKgJCNW6qF6gyOIgZKNjwEBuThalTydPYzYFq4LNYCBAZMC0dFWoDBgGkhkGsBCgOmBVf2kGAYRN3CEDoDpoULoRZAMZBoARgDpoX8EAGNAZuqL7NagMeAkFlGCxAZZIcImAyInx4igDKIhoitFsAySGkBMANCPo9D8AzIw5oPEbAZ8G5hNITOgGnh+id4BqxbQAZxkAEy4JkEDTKYm8FANFXXxMDrmYGAiKbqWhh4vb9Nehvp7FppY1+JQe9f095OvFHZ2FdgsLz/R/cjVY9fupqrwKBvyOvBNrvfPFq2mlNmYJgIWFbJXaNZycZejYF5IiDdYJpcQSxazakxMFIErE8cJ3eNfPlqToWBaSKIw3vl9M1kPlU/k4E3N00EcZ7mheHoMtHCdVushRIGvU8DfY/xomxnpo6bXEGMD9sqMVjeGCiCOMncmLqC6K9FQ0QBg35voe0JXp7U7Jy6gkherfJakDLw5ndmiiDO3vnBcLR63P7F7F1WCzIG5oogTuYMJX0zOasFMYPl/bm+6utJ7hwpbCdauN0bIkQM+v2FttJrS/4szQkudlp4XKXOFvIMvJ7ZIogjOk9Ma+H4YqeFHAPjRRBHfKbama53H+LwNgyFDJY3xosgjuxcORxvtv/Ev30aIvYY9L2FtprrjvRs3Qmy3UKKgekdwX4K9gtsiEi0wLqFhMH8zA4RxCncsXTcq5QWgpiBPSKIU7Jn2tcC/2Pw30JbsQ2lbNfGuoXdRz5F47VvkQjilO8bh+6l5R/5pLJz7YyurP7IJ7W9c+huyr+VsVHcvTvBkb2fBKd8/8CxVwsV7mB0At3FNpTK91AsDDJABjzIABnwIANkwIMMkAEPMkAGPMgAGfAgA2TAgwyQAQ8yQAY8yAAZ8CADZMAzQQZkU/4+JusZCG8mQ2PwdNcIOgN+12gMnsHuCiJkBkpasJ6BghYAMGBa6BRqAQQD4p8W/TIEGAyYFiZyLUBhUKQFOAzk3QIkBoSIuwVYDMRaAMaAkDd5LYBjQMjrbLcAkAHrFva1AJFBVgswGTAtfE20AJUB08JwDJ4BIdshAjIDctKNtACaQawF4AyYFsIxeAZMC+5Qdwn6c9LVXQEGg8FgMBgMBoPBYDAYTCr/Ayt3f9/A4PxrAAAAAElFTkSuQmCC;sketch=1;hachureGap=4;jiggle=2;curveFitting=1;fontFamily=Architects Daughter;fontSource=https%3A%2F%2Ffonts.googleapis.com%2Fcss%3Ffamily%3DArchitects%2BDaughter;fontSize=20;" vertex="1" parent="1">
          <mxGeometry x="240" y="127.53" width="30" height="22.47" as="geometry" />
        </mxCell>
        <mxCell id="_uDYwJI_6yczgbjU_ge_-39" value="" style="shape=image;verticalLabelPosition=bottom;verticalAlign=top;imageAspect=0;aspect=fixed;image=data:image/png,iVBORw0KGgoAAAANSUhEUgAAAQMAAADCCAMAAAB6zFdcAAAAzFBMVEX///9fQ+lAQLJeQelTMuhbPemMe+5jRuoqKq00NK/p6fXUz/ioqNhdQOlQLehRL+hXN+g5ObD5+P5VNehYOuiIdu7t6vxNKOfw7v2nmvLCuvba1fnSzPgnJ6y9tPVsVOu1td4vL67k4Pt2YOxzc8ODcO3R0eqekPHLxPeyp/NmS+p9aeyXiPBoTupsbMG5r/SsoPLHwPZwWOtWVrkfH6qbm9O5ud9QULigkvGSks+Tg+94YuxFRbT29P5HH+fn4/uGhsrHx+VjY74VFapDYfotAAAFyklEQVR4nO2da3vaOBBGJQwEyILxhZK00EIbQsml7bbbTdJNmr38//+0kmOwsSVbTuwKaeb90g9tkvF5nh5mNCIQgsFgMBgMBoPBYDAYDAbTVE583RXoz2z8UXcJ2nPsuh/e6y5Cc47bdDj68aC7DK1hDCgN219016EzEQPqjDu/665EX54YMArtD29016IrWwaUa+FEdzV6kjBgWnBhaiHNgNLgCKIW9hlQxwWohQwDpoVpF5oWcgwo7UDTgoABpWP6WnddvzJCBqxb+ApIC2IGvFuAowUZA6aF9qnu4n5R5Az4EAFDCwUMwGihkAEQLZQwYFoYWa+FUgasW7BdCwoMrNeCCgOuhckr3ZU2FzUGfIg4tXYTocrAZi2oM6DOz5nuaptJBQa0fay72maCDJ7DYN3k6+Titwa/uSzVGXSnk6ba5/NvfxjCoMOm6iZeJwdnPa9vCgM2VQ/rf5383vNaLXMYNNA+/+n1Wy2zGNQ8VZ9/W7Za5jGocaoenM29lpkMWPsc1qAFPxKBsQyYFt69VAuxCMxl8OKpeicCkxlEWnhut8A7gpYNDPhU/fZZP/t7loDBDLgWqo9Tiz0RGM+Aa2FVTQvnN8s8AbMZ8NXcrboWmAhEBExnwLsFVS3c5UVgCQNVLSz6AhHYwkCpW8h2BNYx4N1CoRZSo4G9DCgNA6kW/LtiAtYwYFq4FmtB2BEcAgO3dgaSbkHSERwAg0caOLUz4FpY72th8EnSERwAA0K+tMP6GTAthJ+Tn+HLO4KDYEAefkzVHqsSA66F7W6uqCM4DAaEvP/LVfkPUY1BpAX+Bf69ggi0MyDko4oWqjKgDuVfMJgrI9DKgJCNW6qF6gyOIgZKNjwEBuThalTydPYzYFq4LNYCBAZMC0dFWoDBgGkhkGsBCgOmBVf2kGAYRN3CEDoDpoULoRZAMZBoARgDpoX8EAGNAZuqL7NagMeAkFlGCxAZZIcImAyInx4igDKIhoitFsAySGkBMANCPo9D8AzIw5oPEbAZ8G5hNITOgGnh+id4BqxbQAZxkAEy4JkEDTKYm8FANFXXxMDrmYGAiKbqWhh4vb9Nehvp7FppY1+JQe9f095OvFHZ2FdgsLz/R/cjVY9fupqrwKBvyOvBNrvfPFq2mlNmYJgIWFbJXaNZycZejYF5IiDdYJpcQSxazakxMFIErE8cJ3eNfPlqToWBaSKIw3vl9M1kPlU/k4E3N00EcZ7mheHoMtHCdVushRIGvU8DfY/xomxnpo6bXEGMD9sqMVjeGCiCOMncmLqC6K9FQ0QBg35voe0JXp7U7Jy6gkherfJakDLw5ndmiiDO3vnBcLR63P7F7F1WCzIG5oogTuYMJX0zOasFMYPl/bm+6utJ7hwpbCdauN0bIkQM+v2FttJrS/4szQkudlp4XKXOFvIMvJ7ZIogjOk9Ma+H4YqeFHAPjRRBHfKbama53H+LwNgyFDJY3xosgjuxcORxvtv/Ev30aIvYY9L2FtprrjvRs3Qmy3UKKgekdwX4K9gtsiEi0wLqFhMH8zA4RxCncsXTcq5QWgpiBPSKIU7Jn2tcC/2Pw30JbsQ2lbNfGuoXdRz5F47VvkQjilO8bh+6l5R/5pLJz7YyurP7IJ7W9c+huyr+VsVHcvTvBkb2fBKd8/8CxVwsV7mB0At3FNpTK91AsDDJABjzIABnwIANkwIMMkAEPMkAGPMgAGfAgA2TAgwyQAQ8yQAY8yAAZ8CADZMAzQQZkU/4+JusZCG8mQ2PwdNcIOgN+12gMnsHuCiJkBkpasJ6BghYAMGBa6BRqAQQD4p8W/TIEGAyYFiZyLUBhUKQFOAzk3QIkBoSIuwVYDMRaAMaAkDd5LYBjQMjrbLcAkAHrFva1AJFBVgswGTAtfE20AJUB08JwDJ4BIdshAjIDctKNtACaQawF4AyYFsIxeAZMC+5Qdwn6c9LVXQEGg8FgMBgMBoPBYDAYTCr/Ayt3f9/A4PxrAAAAAElFTkSuQmCC;sketch=1;hachureGap=4;jiggle=2;curveFitting=1;fontFamily=Architects Daughter;fontSource=https://fonts.googleapis.com/css?family=Architects+Daughter;fontSize=20;" vertex="1" parent="1">
          <mxGeometry x="709.5" y="140" width="30" height="22.47" as="geometry" />
        </mxCell>
        <mxCell id="_uDYwJI_6yczgbjU_ge_-40" value="" style="shape=image;verticalLabelPosition=bottom;verticalAlign=top;imageAspect=0;aspect=fixed;image=data:image/png,iVBORw0KGgoAAAANSUhEUgAAAQMAAADCCAMAAAB6zFdcAAAAzFBMVEX///9fQ+lAQLJeQelTMuhbPemMe+5jRuoqKq00NK/p6fXUz/ioqNhdQOlQLehRL+hXN+g5ObD5+P5VNehYOuiIdu7t6vxNKOfw7v2nmvLCuvba1fnSzPgnJ6y9tPVsVOu1td4vL67k4Pt2YOxzc8ODcO3R0eqekPHLxPeyp/NmS+p9aeyXiPBoTupsbMG5r/SsoPLHwPZwWOtWVrkfH6qbm9O5ud9QULigkvGSks+Tg+94YuxFRbT29P5HH+fn4/uGhsrHx+VjY74VFapDYfotAAAFyklEQVR4nO2da3vaOBBGJQwEyILxhZK00EIbQsml7bbbTdJNmr38//+0kmOwsSVbTuwKaeb90g9tkvF5nh5mNCIQgsFgMBgMBoPBYDAYDAbTVE583RXoz2z8UXcJ2nPsuh/e6y5Cc47bdDj68aC7DK1hDCgN219016EzEQPqjDu/665EX54YMArtD29016IrWwaUa+FEdzV6kjBgWnBhaiHNgNLgCKIW9hlQxwWohQwDpoVpF5oWcgwo7UDTgoABpWP6WnddvzJCBqxb+ApIC2IGvFuAowUZA6aF9qnu4n5R5Az4EAFDCwUMwGihkAEQLZQwYFoYWa+FUgasW7BdCwoMrNeCCgOuhckr3ZU2FzUGfIg4tXYTocrAZi2oM6DOz5nuaptJBQa0fay72maCDJ7DYN3k6+Titwa/uSzVGXSnk6ba5/NvfxjCoMOm6iZeJwdnPa9vCgM2VQ/rf5383vNaLXMYNNA+/+n1Wy2zGNQ8VZ9/W7Za5jGocaoenM29lpkMWPsc1qAFPxKBsQyYFt69VAuxCMxl8OKpeicCkxlEWnhut8A7gpYNDPhU/fZZP/t7loDBDLgWqo9Tiz0RGM+Aa2FVTQvnN8s8AbMZ8NXcrboWmAhEBExnwLsFVS3c5UVgCQNVLSz6AhHYwkCpW8h2BNYx4N1CoRZSo4G9DCgNA6kW/LtiAtYwYFq4FmtB2BEcAgO3dgaSbkHSERwAg0caOLUz4FpY72th8EnSERwAA0K+tMP6GTAthJ+Tn+HLO4KDYEAefkzVHqsSA66F7W6uqCM4DAaEvP/LVfkPUY1BpAX+Bf69ggi0MyDko4oWqjKgDuVfMJgrI9DKgJCNW6qF6gyOIgZKNjwEBuThalTydPYzYFq4LNYCBAZMC0dFWoDBgGkhkGsBCgOmBVf2kGAYRN3CEDoDpoULoRZAMZBoARgDpoX8EAGNAZuqL7NagMeAkFlGCxAZZIcImAyInx4igDKIhoitFsAySGkBMANCPo9D8AzIw5oPEbAZ8G5hNITOgGnh+id4BqxbQAZxkAEy4JkEDTKYm8FANFXXxMDrmYGAiKbqWhh4vb9Nehvp7FppY1+JQe9f095OvFHZ2FdgsLz/R/cjVY9fupqrwKBvyOvBNrvfPFq2mlNmYJgIWFbJXaNZycZejYF5IiDdYJpcQSxazakxMFIErE8cJ3eNfPlqToWBaSKIw3vl9M1kPlU/k4E3N00EcZ7mheHoMtHCdVushRIGvU8DfY/xomxnpo6bXEGMD9sqMVjeGCiCOMncmLqC6K9FQ0QBg35voe0JXp7U7Jy6gkherfJakDLw5ndmiiDO3vnBcLR63P7F7F1WCzIG5oogTuYMJX0zOasFMYPl/bm+6utJ7hwpbCdauN0bIkQM+v2FttJrS/4szQkudlp4XKXOFvIMvJ7ZIogjOk9Ma+H4YqeFHAPjRRBHfKbama53H+LwNgyFDJY3xosgjuxcORxvtv/Ev30aIvYY9L2FtprrjvRs3Qmy3UKKgekdwX4K9gtsiEi0wLqFhMH8zA4RxCncsXTcq5QWgpiBPSKIU7Jn2tcC/2Pw30JbsQ2lbNfGuoXdRz5F47VvkQjilO8bh+6l5R/5pLJz7YyurP7IJ7W9c+huyr+VsVHcvTvBkb2fBKd8/8CxVwsV7mB0At3FNpTK91AsDDJABjzIABnwIANkwIMMkAEPMkAGPMgAGfAgA2TAgwyQAQ8yQAY8yAAZ8CADZMAzQQZkU/4+JusZCG8mQ2PwdNcIOgN+12gMnsHuCiJkBkpasJ6BghYAMGBa6BRqAQQD4p8W/TIEGAyYFiZyLUBhUKQFOAzk3QIkBoSIuwVYDMRaAMaAkDd5LYBjQMjrbLcAkAHrFva1AJFBVgswGTAtfE20AJUB08JwDJ4BIdshAjIDctKNtACaQawF4AyYFsIxeAZMC+5Qdwn6c9LVXQEGg8FgMBgMBoPBYDAYTCr/Ayt3f9/A4PxrAAAAAElFTkSuQmCC;sketch=1;hachureGap=4;jiggle=2;curveFitting=1;fontFamily=Architects Daughter;fontSource=https://fonts.googleapis.com/css?family=Architects+Daughter;fontSize=20;" vertex="1" parent="1">
          <mxGeometry x="400" y="417.53" width="30" height="22.47" as="geometry" />
        </mxCell>
        <mxCell id="_uDYwJI_6yczgbjU_ge_-42" value="" style="sketch=0;html=1;dashed=0;whitespace=wrap;fillColor=#2875E2;strokeColor=#ffffff;points=[[0.005,0.63,0],[0.1,0.2,0],[0.9,0.2,0],[0.5,0,0],[0.995,0.63,0],[0.72,0.99,0],[0.5,1,0],[0.28,0.99,0]];verticalLabelPosition=bottom;align=center;verticalAlign=top;shape=mxgraph.kubernetes.icon;prIcon=ep;hachureGap=4;jiggle=2;curveFitting=1;fontFamily=Architects Daughter;fontSource=https%3A%2F%2Ffonts.googleapis.com%2Fcss%3Ffamily%3DArchitects%2BDaughter;fontSize=20;" vertex="1" parent="1">
          <mxGeometry x="645" y="540" width="50" height="48" as="geometry" />
        </mxCell>
        <mxCell id="_uDYwJI_6yczgbjU_ge_-51" style="edgeStyle=orthogonalEdgeStyle;rounded=0;sketch=1;hachureGap=4;jiggle=2;curveFitting=1;orthogonalLoop=1;jettySize=auto;html=1;fontFamily=Architects Daughter;fontSource=https%3A%2F%2Ffonts.googleapis.com%2Fcss%3Ffamily%3DArchitects%2BDaughter;fontSize=16;" edge="1" parent="1" source="_uDYwJI_6yczgbjU_ge_-43">
          <mxGeometry relative="1" as="geometry">
            <mxPoint x="290" y="480" as="targetPoint" />
          </mxGeometry>
        </mxCell>
        <mxCell id="_uDYwJI_6yczgbjU_ge_-43" value="minikube" style="text;html=1;align=center;verticalAlign=middle;resizable=0;points=[];autosize=1;strokeColor=none;fillColor=none;fontSize=20;fontFamily=Architects Daughter;" vertex="1" parent="1">
          <mxGeometry x="620" y="583" width="100" height="40" as="geometry" />
        </mxCell>
        <mxCell id="_uDYwJI_6yczgbjU_ge_-44" value="" style="image;sketch=0;aspect=fixed;html=1;points=[];align=center;fontSize=12;image=img/lib/mscae/VM_Windows_Non_Azure.svg;hachureGap=4;jiggle=2;curveFitting=1;fontFamily=Architects Daughter;fontSource=https%3A%2F%2Ffonts.googleapis.com%2Fcss%3Ffamily%3DArchitects%2BDaughter;" vertex="1" parent="1">
          <mxGeometry x="695" y="530" width="30" height="27.6" as="geometry" />
        </mxCell>
        <mxCell id="_uDYwJI_6yczgbjU_ge_-45" value="" style="image;sketch=0;aspect=fixed;html=1;points=[];align=center;fontSize=12;image=img/lib/mscae/Docker.svg;hachureGap=4;jiggle=2;curveFitting=1;fontFamily=Architects Daughter;fontSource=https%3A%2F%2Ffonts.googleapis.com%2Fcss%3Ffamily%3DArchitects%2BDaughter;" vertex="1" parent="1">
          <mxGeometry x="480" y="145.4" width="80" height="65.6" as="geometry" />
        </mxCell>
        <mxCell id="_uDYwJI_6yczgbjU_ge_-46" value="build" style="text;html=1;align=center;verticalAlign=middle;resizable=0;points=[];autosize=1;strokeColor=none;fillColor=none;fontSize=20;fontFamily=Architects Daughter;" vertex="1" parent="1">
          <mxGeometry x="480" y="213" width="60" height="40" as="geometry" />
        </mxCell>
        <mxCell id="_uDYwJI_6yczgbjU_ge_-48" value="" style="image;aspect=fixed;html=1;points=[];align=center;fontSize=12;image=img/lib/azure2/other/Grafana.svg;sketch=1;hachureGap=4;jiggle=2;curveFitting=1;fontFamily=Architects Daughter;fontSource=https%3A%2F%2Ffonts.googleapis.com%2Fcss%3Ffamily%3DArchitects%2BDaughter;" vertex="1" parent="1">
          <mxGeometry x="188.32" y="417.53" width="60.88" height="47.27" as="geometry" />
        </mxCell>
        <mxCell id="_uDYwJI_6yczgbjU_ge_-49" value="" style="sketch=0;points=[[0,0,0],[0.25,0,0],[0.5,0,0],[0.75,0,0],[1,0,0],[0,1,0],[0.25,1,0],[0.5,1,0],[0.75,1,0],[1,1,0],[0,0.25,0],[0,0.5,0],[0,0.75,0],[1,0.25,0],[1,0.5,0],[1,0.75,0]];points=[[0,0,0],[0.25,0,0],[0.5,0,0],[0.75,0,0],[1,0,0],[0,1,0],[0.25,1,0],[0.5,1,0],[0.75,1,0],[1,1,0],[0,0.25,0],[0,0.5,0],[0,0.75,0],[1,0.25,0],[1,0.5,0],[1,0.75,0]];outlineConnect=0;fontColor=#232F3E;fillColor=#E7157B;strokeColor=#ffffff;dashed=0;verticalLabelPosition=bottom;verticalAlign=top;align=center;html=1;fontSize=12;fontStyle=0;aspect=fixed;shape=mxgraph.aws4.resourceIcon;resIcon=mxgraph.aws4.managed_service_for_prometheus;hachureGap=4;jiggle=2;curveFitting=1;fontFamily=Architects Daughter;fontSource=https%3A%2F%2Ffonts.googleapis.com%2Fcss%3Ffamily%3DArchitects%2BDaughter;" vertex="1" parent="1">
          <mxGeometry x="190" y="480.8" width="59.2" height="59.2" as="geometry" />
        </mxCell>
        <mxCell id="_uDYwJI_6yczgbjU_ge_-50" value="monitoring&lt;br&gt;log &amp;amp; viz" style="text;html=1;align=center;verticalAlign=middle;resizable=0;points=[];autosize=1;strokeColor=none;fillColor=none;fontSize=20;fontFamily=Architects Daughter;" vertex="1" parent="1">
          <mxGeometry x="170" y="543" width="120" height="60" as="geometry" />
        </mxCell>
        <mxCell id="_uDYwJI_6yczgbjU_ge_-52" value="Istio" style="sketch=0;html=1;verticalAlign=top;labelPosition=center;verticalLabelPosition=bottom;align=center;spacingTop=-6;fontSize=11;fontStyle=1;fontColor=#999999;shape=image;aspect=fixed;imageAspect=0;image=data:image/svg+xml,PHN2ZyB4bWxucz0iaHR0cDovL3d3dy53My5vcmcvMjAwMC9zdmciIHhtbG5zOnY9Imh0dHBzOi8vdmVjdGEuaW8vbmFubyIgd2lkdGg9IjE2MCIgaGVpZ2h0PSIyNDAiIHZpZXdCb3g9IjAgMCAxNjAgMjQwIj4mI3hhOwk8c3R5bGUgdHlwZT0idGV4dC9jc3MiPiYjeGE7CS5zdDB7ZmlsbDojNDY2YmIwO30mI3hhOwk8L3N0eWxlPiYjeGE7CTxwYXRoIGNsYXNzPSJzdDAiIGQ9Ik02MCAyNDBMMCAyMTBoMTYwem0wLTE2MEwwIDIwMGw2MC0xMHpNNzAgMHYxOTBsOTAgMTB6Ii8+JiN4YTs8L3N2Zz4=;hachureGap=4;jiggle=2;curveFitting=1;fontFamily=Architects Daughter;fontSource=https%3A%2F%2Ffonts.googleapis.com%2Fcss%3Ffamily%3DArchitects%2BDaughter;" vertex="1" parent="1">
          <mxGeometry x="313" y="390" width="27" height="42" as="geometry" />
        </mxCell>
        <mxCell id="_uDYwJI_6yczgbjU_ge_-53" value="Istio" style="sketch=0;html=1;verticalAlign=top;labelPosition=center;verticalLabelPosition=bottom;align=center;spacingTop=-6;fontSize=11;fontStyle=1;fontColor=#999999;shape=image;aspect=fixed;imageAspect=0;image=data:image/svg+xml,PHN2ZyB4bWxucz0iaHR0cDovL3d3dy53My5vcmcvMjAwMC9zdmciIHhtbG5zOnY9Imh0dHBzOi8vdmVjdGEuaW8vbmFubyIgd2lkdGg9IjE2MCIgaGVpZ2h0PSIyNDAiIHZpZXdCb3g9IjAgMCAxNjAgMjQwIj4mI3hhOwk8c3R5bGUgdHlwZT0idGV4dC9jc3MiPiYjeGE7CS5zdDB7ZmlsbDojNDY2YmIwO30mI3hhOwk8L3N0eWxlPiYjeGE7CTxwYXRoIGNsYXNzPSJzdDAiIGQ9Ik02MCAyNDBMMCAyMTBoMTYwem0wLTE2MEwwIDIwMGw2MC0xMHpNNzAgMHYxOTBsOTAgMTB6Ii8+JiN4YTs8L3N2Zz4=;hachureGap=4;jiggle=2;curveFitting=1;fontFamily=Architects Daughter;fontSource=https%3A%2F%2Ffonts.googleapis.com%2Fcss%3Ffamily%3DArchitects%2BDaughter;" vertex="1" parent="1">
          <mxGeometry x="720" y="561" width="27" height="42" as="geometry" />
        </mxCell>
      </root>
    </mxGraphModel>
  </diagram>
</mxfile>
